<?xml version="1.0" encoding="UTF-8"?><svg id="Layer_1" xmlns="http://www.w3.org/2000/svg" viewBox="0 0 531.88 129.34"><defs><style>.cls-1{fill:#f18834;}.cls-2{fill:#fff;}.cls-3{fill:#4c81b6;}</style></defs><path class="cls-3" d="M53.89,0H3.13C1.4,0,0,1.4,0,3.13V53.89c0,1.73,1.4,3.13,3.13,3.13H53.89c1.73,0,3.13-1.4,3.13-3.13V3.13c0-1.73-1.4-3.13-3.13-3.13Z"/><path class="cls-1" d="M53.89,64.18H3.13c-1.73,0-3.13,1.4-3.13,3.13v50.76c0,1.73,1.4,3.13,3.13,3.13H53.89c1.73,0,3.13-1.4,3.13-3.13v-50.76c0-1.73-1.4-3.13-3.13-3.13Z"/><path class="cls-1" d="M119.1,8.14h-50.76c-1.73,0-3.13,1.4-3.13,3.13V62.03c0,1.73,1.4,3.13,3.13,3.13h50.76c1.73,0,3.13-1.4,3.13-3.13V11.27c0-1.73-1.4-3.13-3.13-3.13Z"/><path class="cls-3" d="M119.1,72.33h-50.76c-1.73,0-3.13,1.4-3.13,3.13v50.76c0,1.73,1.4,3.13,3.13,3.13h50.76c1.73,0,3.13-1.4,3.13-3.13v-50.76c0-1.73-1.4-3.13-3.13-3.13Z"/><path class="cls-2" d="M40.7,22.17h-7.01c-.35-2.84-1.95-4.66-4.88-4.66-2.17,0-3.72,1.02-3.72,3.23s1.55,3.55,6.48,4.7c6.75,1.6,9.67,4.79,9.67,9.63,0,5.94-5.55,9.14-11.67,9.14-7.5,0-12.46-3.19-12.99-9.8h7.01c.63,3.15,3.06,4.66,5.85,4.66,2.52,0,4.53-1.33,4.53-3.42s-1.42-3.6-5.59-4.57c-6.56-1.64-10.55-3.82-10.55-9.67s5.28-9.05,11.22-9.05c7.63,0,11,4.26,11.67,9.8h-.02Z"/><path class="cls-2" d="M97.6,27.2v25.2h-6.91V27.2h-10.2v-5.41h27.32v5.41h-10.2Z"/><path class="cls-2" d="M25.5,105.95v-30.61h6.97v30.61h-6.97Z"/><path class="cls-2" d="M105.92,95.03h-7.01c-.35-2.84-1.95-4.66-4.88-4.66-2.17,0-3.72,1.02-3.72,3.23s1.55,3.55,6.48,4.7c6.75,1.6,9.67,4.79,9.67,9.63,0,5.94-5.55,9.14-11.67,9.14-7.5,0-12.46-3.19-12.99-9.8h7.01c.63,3.15,3.07,4.66,5.85,4.66,2.52,0,4.53-1.33,4.53-3.42s-1.42-3.6-5.59-4.57c-6.56-1.64-10.56-3.82-10.56-9.67s5.28-9.05,11.22-9.05c7.63,0,11,4.26,11.67,9.8h-.01Z"/><path class="cls-2" d="M150.69,44.44c.32,2.31,.95,4.03,1.89,5.18,1.71,2.08,4.65,3.12,8.81,3.12,2.49,0,4.51-.27,6.07-.82,2.95-1.05,4.42-3,4.42-5.86,0-1.67-.73-2.96-2.19-3.87-1.46-.89-3.76-1.68-6.89-2.37l-5.35-1.2c-5.26-1.19-8.89-2.48-10.9-3.87-3.4-2.33-5.11-5.98-5.11-10.93,0-4.52,1.65-8.28,4.94-11.28,3.29-2.99,8.12-4.49,14.5-4.49,5.32,0,9.86,1.42,13.61,4.25,3.77,2.81,5.75,6.9,5.93,12.27h-10.15c-.18-3.04-1.51-5.2-3.98-6.48-1.65-.85-3.69-1.27-6.14-1.27-2.72,0-4.89,.55-6.51,1.65s-2.43,2.63-2.43,4.59c0,1.81,.8,3.15,2.4,4.04,1.03,.59,3.22,1.29,6.58,2.09l8.71,2.09c3.82,.91,6.7,2.14,8.64,3.67,3.02,2.38,4.52,5.82,4.52,10.32s-1.77,8.45-5.31,11.52c-3.52,3.04-8.5,4.56-14.94,4.56s-11.76-1.5-15.53-4.49c-3.77-3.02-5.66-7.15-5.66-12.41h10.08Zm34.55-14.46v-6.96h5.21V12.6h9.67v10.42h6.07v6.96h-6.07v19.74c0,1.53,.19,2.49,.58,2.88,.39,.37,1.58,.55,3.56,.55h.93c.34-.02,.67-.05,.99-.07v7.3l-4.63,.17c-4.62,.16-7.77-.64-9.46-2.4-1.1-1.12-1.65-2.85-1.65-5.18V29.97h-5.21Zm41.95-.24c-2.26,0-4.02,.71-5.28,2.13-1.23,1.42-2.01,3.34-2.33,5.76h15.18c-.16-2.58-.95-4.54-2.37-5.86-1.39-1.35-3.13-2.02-5.21-2.02Zm0-8.05c3.11,0,5.91,.58,8.4,1.75,2.49,1.17,4.55,3,6.17,5.52,1.46,2.22,2.41,4.79,2.85,7.71,.25,1.71,.35,4.18,.31,7.4h-25.57c.14,3.75,1.31,6.38,3.53,7.88,1.35,.94,2.97,1.41,4.87,1.41,2.01,0,3.64-.57,4.9-1.71,.69-.62,1.29-1.47,1.82-2.57h9.97c-.25,2.22-1.41,4.47-3.46,6.75-3.2,3.63-7.68,5.45-13.44,5.45-4.75,0-8.95-1.53-12.58-4.59-3.63-3.06-5.45-8.04-5.45-14.94,0-6.47,1.63-11.43,4.9-14.88,3.29-3.45,7.55-5.18,12.78-5.18Zm39.08,8.05c-2.26,0-4.02,.71-5.28,2.13-1.23,1.42-2.01,3.34-2.33,5.76h15.18c-.16-2.58-.95-4.54-2.36-5.86-1.39-1.35-3.13-2.02-5.21-2.02Zm0-8.05c3.11,0,5.91,.58,8.4,1.75,2.49,1.17,4.55,3,6.17,5.52,1.46,2.22,2.41,4.79,2.85,7.71,.25,1.71,.35,4.18,.31,7.4h-25.57c.14,3.75,1.31,6.38,3.53,7.88,1.35,.94,2.97,1.41,4.87,1.41,2.01,0,3.64-.57,4.9-1.71,.69-.62,1.29-1.47,1.82-2.57h9.97c-.25,2.22-1.41,4.47-3.46,6.75-3.2,3.63-7.68,5.45-13.44,5.45-4.75,0-8.95-1.53-12.58-4.59s-5.45-8.04-5.45-14.94c0-6.47,1.63-11.43,4.9-14.88,3.29-3.45,7.55-5.18,12.78-5.18Zm34.31,38.36h-9.77V9.51h9.77V60.03ZM367.18,9.51v8.95h-15.12V60.03h-10.63V18.46h-15.18V9.51h40.93Zm21.87,12.27c.18,0,.33,.01,.45,.03,.14,0,.42,.01,.86,.03v10.01c-.62-.07-1.17-.11-1.65-.14-.48-.02-.87-.03-1.17-.03-3.93,0-6.57,1.28-7.92,3.84-.75,1.44-1.13,3.66-1.13,6.65v17.86h-9.84V22.67h9.32v6.51c1.51-2.49,2.82-4.19,3.94-5.11,1.83-1.53,4.2-2.3,7.13-2.3Zm27.66,20.09c-.62,.39-1.25,.71-1.88,.96-.62,.23-1.47,.45-2.57,.65l-2.19,.41c-2.06,.37-3.53,.81-4.42,1.34-1.51,.89-2.26,2.27-2.26,4.15,0,1.67,.46,2.88,1.37,3.63,.94,.73,2.07,1.1,3.39,1.1,2.1,0,4.03-.62,5.79-1.85,1.78-1.23,2.71-3.48,2.78-6.75v-3.63Zm-5.93-4.56c1.81-.23,3.1-.51,3.87-.86,1.39-.59,2.09-1.52,2.09-2.78,0-1.53-.54-2.58-1.61-3.15-1.05-.59-2.61-.89-4.66-.89-2.31,0-3.94,.57-4.9,1.71-.69,.85-1.14,1.99-1.37,3.43h-9.43c.21-3.27,1.12-5.95,2.74-8.05,2.58-3.29,7.02-4.94,13.3-4.94,4.09,0,7.72,.81,10.9,2.43,3.18,1.62,4.76,4.68,4.76,9.19v17.14c0,1.19,.02,2.63,.07,4.32,.07,1.28,.26,2.15,.58,2.6,.32,.46,.8,.83,1.44,1.13v1.44h-10.63c-.3-.75-.5-1.46-.62-2.12-.11-.66-.21-1.42-.27-2.26-1.35,1.46-2.9,2.71-4.66,3.74-2.1,1.21-4.48,1.82-7.13,1.82-3.38,0-6.18-.96-8.4-2.88-2.19-1.94-3.29-4.68-3.29-8.23,0-4.59,1.77-7.92,5.31-9.97,1.94-1.12,4.8-1.92,8.57-2.4l3.32-.41Zm38.18-15.53c2.26,0,4.27,.5,6.03,1.51,1.76,.98,3.19,2.35,4.28,4.11V9.58h9.91V60.03h-9.49v-5.18c-1.39,2.22-2.98,3.83-4.76,4.83-1.78,1.01-4,1.51-6.65,1.51-4.36,0-8.04-1.76-11.04-5.28-2.97-3.54-4.46-8.08-4.46-13.61,0-6.38,1.46-11.39,4.39-15.05,2.95-3.66,6.88-5.48,11.79-5.48Zm2.13,31.19c2.76,0,4.87-1.03,6.31-3.08,1.44-2.06,2.16-4.72,2.16-7.99,0-4.57-1.15-7.84-3.46-9.8-1.42-1.19-3.06-1.78-4.94-1.78-2.86,0-4.96,1.09-6.31,3.26-1.33,2.15-1.99,4.82-1.99,8.02,0,3.45,.67,6.22,2.02,8.29,1.37,2.06,3.44,3.08,6.2,3.08Zm41.75-23.24c-2.26,0-4.02,.71-5.28,2.13-1.23,1.42-2.01,3.34-2.33,5.76h15.18c-.16-2.58-.95-4.54-2.37-5.86-1.39-1.35-3.13-2.02-5.21-2.02Zm0-8.05c3.11,0,5.91,.58,8.4,1.75,2.49,1.17,4.55,3,6.17,5.52,1.46,2.22,2.41,4.79,2.85,7.71,.25,1.71,.35,4.18,.31,7.4h-25.57c.14,3.75,1.31,6.38,3.53,7.88,1.35,.94,2.97,1.41,4.87,1.41,2.01,0,3.64-.57,4.9-1.71,.69-.62,1.29-1.47,1.82-2.57h9.97c-.25,2.22-1.4,4.47-3.46,6.75-3.2,3.63-7.68,5.45-13.44,5.45-4.75,0-8.95-1.53-12.58-4.59-3.63-3.06-5.45-8.04-5.45-14.94,0-6.47,1.63-11.43,4.9-14.88,3.29-3.45,7.55-5.18,12.79-5.18ZM150.65,127.89h-10.49v-50.52h10.49v50.52Zm29.79-38.25c3.86,0,7.02,1.02,9.46,3.05,2.47,2.01,3.7,5.36,3.7,10.04v25.16h-10.01v-22.72c0-1.97-.26-3.47-.79-4.52-.96-1.92-2.79-2.88-5.48-2.88-3.31,0-5.59,1.41-6.82,4.22-.64,1.49-.96,3.38-.96,5.69v20.22h-9.73v-37.29h9.43v5.45c1.26-1.92,2.45-3.3,3.56-4.15,2.01-1.51,4.56-2.26,7.64-2.26Zm35.99-12.78c.62,0,1.18,.02,1.68,.07,.5,.02,1.19,.07,2.06,.14v7.95c-.55-.07-1.47-.11-2.78-.14-1.28-.05-2.17,.24-2.67,.86-.48,.59-.72,1.26-.72,1.99v3.15h6.41v6.89h-6.41v30.13h-9.73v-30.13h-5.45v-6.89h5.35v-2.4c0-4,.67-6.75,2.02-8.26,1.42-2.24,4.83-3.36,10.25-3.36Zm26.36,44.15c2.86,0,5.05-1.02,6.58-3.05,1.53-2.03,2.3-4.92,2.3-8.67s-.77-6.63-2.3-8.64c-1.53-2.03-3.72-3.05-6.58-3.05s-5.06,1.02-6.62,3.05c-1.53,2.01-2.3,4.89-2.3,8.64s.77,6.64,2.3,8.67c1.55,2.03,3.76,3.05,6.62,3.05Zm19.13-11.72c0,5.48-1.58,10.18-4.73,14.09-3.15,3.88-7.94,5.83-14.36,5.83s-11.21-1.94-14.36-5.83c-3.15-3.91-4.73-8.6-4.73-14.09s1.58-10.07,4.73-14.02c3.15-3.95,7.94-5.93,14.36-5.93s11.21,1.98,14.36,5.93c3.15,3.95,4.73,8.63,4.73,14.02Zm35,3.02c.32,2.31,.95,4.03,1.89,5.18,1.71,2.08,4.65,3.12,8.81,3.12,2.49,0,4.51-.27,6.07-.82,2.95-1.05,4.42-3,4.42-5.86,0-1.67-.73-2.96-2.19-3.87-1.46-.89-3.76-1.68-6.89-2.37l-5.35-1.2c-5.26-1.19-8.89-2.48-10.9-3.87-3.4-2.33-5.11-5.98-5.11-10.93,0-4.52,1.65-8.28,4.94-11.28,3.29-2.99,8.12-4.49,14.5-4.49,5.32,0,9.86,1.42,13.61,4.25,3.77,2.81,5.75,6.9,5.93,12.27h-10.15c-.18-3.04-1.51-5.2-3.98-6.48-1.65-.85-3.69-1.27-6.14-1.27-2.72,0-4.89,.55-6.51,1.65-1.62,1.1-2.43,2.63-2.43,4.59,0,1.81,.8,3.15,2.4,4.04,1.03,.59,3.22,1.29,6.58,2.09l8.71,2.09c3.82,.91,6.7,2.14,8.64,3.67,3.02,2.38,4.52,5.82,4.52,10.32s-1.77,8.45-5.31,11.52c-3.52,3.04-8.5,4.56-14.94,4.56s-11.76-1.5-15.53-4.49c-3.77-3.02-5.66-7.15-5.66-12.41h10.08Zm53.13-14.7c-2.26,0-4.02,.71-5.28,2.13-1.23,1.42-2.01,3.34-2.33,5.76h15.18c-.16-2.58-.95-4.54-2.36-5.86-1.39-1.35-3.13-2.02-5.21-2.02Zm0-8.05c3.11,0,5.91,.58,8.4,1.75,2.49,1.17,4.55,3,6.17,5.52,1.46,2.22,2.41,4.79,2.84,7.71,.25,1.71,.35,4.18,.31,7.4h-25.57c.14,3.75,1.31,6.37,3.53,7.88,1.35,.94,2.97,1.41,4.87,1.41,2.01,0,3.64-.57,4.9-1.71,.69-.62,1.29-1.47,1.82-2.57h9.97c-.25,2.22-1.41,4.47-3.46,6.75-3.2,3.63-7.68,5.45-13.44,5.45-4.75,0-8.95-1.53-12.58-4.59-3.63-3.06-5.45-8.04-5.45-14.94,0-6.47,1.63-11.43,4.9-14.88,3.29-3.45,7.55-5.18,12.79-5.18Zm44.63,.1c.18,0,.33,.01,.45,.03,.14,0,.42,.01,.86,.03v10.01c-.62-.07-1.17-.11-1.65-.14-.48-.02-.87-.03-1.17-.03-3.93,0-6.57,1.28-7.92,3.84-.75,1.44-1.13,3.66-1.13,6.65v17.86h-9.84v-37.36h9.32v6.51c1.51-2.49,2.82-4.19,3.94-5.11,1.83-1.53,4.2-2.3,7.13-2.3Zm30.09,.89h10.49l-13.47,37.36h-10.32l-13.4-37.36h10.97l7.78,27.56,7.95-27.56Zm26.08-4.46h-9.91v-9.01h9.91v9.01Zm-9.91,4.46h9.91v37.36h-9.91v-37.36Zm41.71,13.4c-.18-1.39-.65-2.65-1.4-3.77-1.1-1.51-2.8-2.26-5.11-2.26-3.29,0-5.54,1.63-6.75,4.9-.64,1.74-.96,4.04-.96,6.92s.32,4.95,.96,6.62c1.17,3.11,3.36,4.66,6.58,4.66,2.29,0,3.91-.62,4.87-1.85,.96-1.23,1.54-2.83,1.75-4.8h9.97c-.23,2.97-1.3,5.78-3.22,8.43-3.06,4.27-7.6,6.41-13.61,6.41s-10.43-1.78-13.26-5.35c-2.83-3.57-4.25-8.19-4.25-13.88,0-6.42,1.57-11.41,4.7-14.98,3.13-3.56,7.45-5.35,12.96-5.35,4.68,0,8.51,1.05,11.48,3.15,2.99,2.1,4.76,5.82,5.31,11.14h-10.01Zm31.5-6.34c-2.26,0-4.02,.71-5.28,2.13-1.23,1.42-2.01,3.34-2.33,5.76h15.18c-.16-2.58-.95-4.54-2.37-5.86-1.39-1.35-3.13-2.02-5.21-2.02Zm0-8.05c3.11,0,5.91,.58,8.4,1.75,2.49,1.17,4.55,3,6.17,5.52,1.46,2.22,2.41,4.79,2.85,7.71,.25,1.71,.35,4.18,.31,7.4h-25.57c.14,3.75,1.31,6.37,3.53,7.88,1.35,.94,2.97,1.41,4.87,1.41,2.01,0,3.64-.57,4.9-1.71,.69-.62,1.29-1.47,1.82-2.57h9.97c-.25,2.22-1.4,4.47-3.46,6.75-3.2,3.63-7.68,5.45-13.44,5.45-4.75,0-8.95-1.53-12.58-4.59-3.63-3.06-5.45-8.04-5.45-14.94,0-6.47,1.63-11.43,4.9-14.88,3.29-3.45,7.55-5.18,12.79-5.18Z"/></svg>